<svg height="512" viewBox="0 0 64 64" width="512" xmlns="http://www.w3.org/2000/svg" xmlns:xlink="http://www.w3.org/1999/xlink"><linearGradient id="New_Gradient_Swatch_3" gradientUnits="userSpaceOnUse" x1="32" x2="32" y1="63.786" y2=".412"><stop offset="0" stop-color="#006df0"/><stop offset="1" stop-color="#00e7f0"/></linearGradient><g id="Computer" fill="url(#New_Gradient_Swatch_3)"><path d="m57 2h-50a5.006 5.006 0 0 0 -5 5v38a5.006 5.006 0 0 0 5 5h16.557l-2.25 6h-2.307a3 3 0 0 0 -3 3v2a1 1 0 0 0 1 1h30a1 1 0 0 0 1-1v-2a3 3 0 0 0 -3-3h-2.307l-2.25-6h16.557a5.006 5.006 0 0 0 5-5v-38a5.006 5.006 0 0 0 -5-5zm-50 2h50a3 3 0 0 1 3 3v31h-56v-31a3 3 0 0 1 3-3zm39 55v1h-28v-1a1 1 0 0 1 1-1h26a1 1 0 0 1 1 1zm-5.443-3h-17.114l2.25-6h12.614zm16.443-8h-50a3 3 0 0 1 -3-3v-5h56v5a3 3 0 0 1 -3 3z"/><path d="m32 41a3 3 0 1 0 3 3 3 3 0 0 0 -3-3zm0 4a1 1 0 1 1 1-1 1 1 0 0 1 -1 1z"/></g></svg>